<svg width="188" height="39" viewBox="0 0 188 39" fill="none" xmlns="http://www.w3.org/2000/svg">
<path d="M55.848 10.852V29H52.208V21.278H44.434V29H40.794V10.852H44.434V18.314H52.208V10.852H55.848ZM65.8267 29.234C64.4401 29.234 63.1921 28.9307 62.0827 28.324C60.9734 27.7 60.0981 26.8247 59.4567 25.698C58.8327 24.5713 58.5207 23.2713 58.5207 21.798C58.5207 20.3247 58.8414 19.0247 59.4827 17.898C60.1414 16.7713 61.0341 15.9047 62.1607 15.298C63.2874 14.674 64.5441 14.362 65.9307 14.362C67.3174 14.362 68.5741 14.674 69.7007 15.298C70.8274 15.9047 71.7114 16.7713 72.3527 17.898C73.0114 19.0247 73.3407 20.3247 73.3407 21.798C73.3407 23.2713 73.0027 24.5713 72.3267 25.698C71.6681 26.8247 70.7667 27.7 69.6227 28.324C68.4961 28.9307 67.2307 29.234 65.8267 29.234ZM65.8267 26.062C66.4854 26.062 67.1007 25.906 67.6727 25.594C68.2621 25.2647 68.7301 24.7793 69.0767 24.138C69.4234 23.4967 69.5967 22.7167 69.5967 21.798C69.5967 20.4287 69.2327 19.38 68.5047 18.652C67.7941 17.9067 66.9187 17.534 65.8787 17.534C64.8387 17.534 63.9634 17.9067 63.2527 18.652C62.5594 19.38 62.2127 20.4287 62.2127 21.798C62.2127 23.1673 62.5507 24.2247 63.2267 24.97C63.9201 25.698 64.7867 26.062 65.8267 26.062ZM80.2488 17.586V24.554C80.2488 25.0393 80.3615 25.3947 80.5868 25.62C80.8295 25.828 81.2281 25.932 81.7828 25.932H83.4728V29H81.1848C78.1168 29 76.5828 27.5093 76.5828 24.528V17.586H74.8668V14.596H76.5828V11.034H80.2488V14.596H83.4728V17.586H80.2488ZM99.4809 21.486C99.4809 22.006 99.4462 22.474 99.3769 22.89H88.8469C88.9335 23.93 89.2975 24.7447 89.9389 25.334C90.5802 25.9233 91.3689 26.218 92.3049 26.218C93.6569 26.218 94.6189 25.6373 95.1909 24.476H99.1169C98.7009 25.8627 97.9035 27.0067 96.7249 27.908C95.5462 28.792 94.0989 29.234 92.3829 29.234C90.9962 29.234 89.7482 28.9307 88.6389 28.324C87.5469 27.7 86.6889 26.8247 86.0649 25.698C85.4582 24.5713 85.1549 23.2713 85.1549 21.798C85.1549 20.3073 85.4582 18.9987 86.0649 17.872C86.6715 16.7453 87.5209 15.8787 88.6129 15.272C89.7049 14.6653 90.9615 14.362 92.3829 14.362C93.7522 14.362 94.9742 14.6567 96.0489 15.246C97.1409 15.8353 97.9815 16.676 98.5709 17.768C99.1775 18.8427 99.4809 20.082 99.4809 21.486ZM95.7109 20.446C95.6935 19.51 95.3555 18.7647 94.6969 18.21C94.0382 17.638 93.2322 17.352 92.2789 17.352C91.3775 17.352 90.6149 17.6293 89.9909 18.184C89.3842 18.7213 89.0115 19.4753 88.8729 20.446H95.7109ZM105.778 9.76V29H102.138V9.76H105.778ZM114.886 29.234C113.707 29.234 112.65 29.026 111.714 28.61C110.778 28.1767 110.033 27.596 109.478 26.868C108.941 26.14 108.646 25.334 108.594 24.45H112.26C112.329 25.0047 112.598 25.464 113.066 25.828C113.551 26.192 114.149 26.374 114.86 26.374C115.553 26.374 116.091 26.2353 116.472 25.958C116.871 25.6807 117.07 25.3253 117.07 24.892C117.07 24.424 116.827 24.0773 116.342 23.852C115.874 23.6093 115.12 23.3493 114.08 23.072C113.005 22.812 112.121 22.5433 111.428 22.266C110.752 21.9887 110.163 21.564 109.66 20.992C109.175 20.42 108.932 19.6487 108.932 18.678C108.932 17.8807 109.157 17.1527 109.608 16.494C110.076 15.8353 110.735 15.3153 111.584 14.934C112.451 14.5527 113.465 14.362 114.626 14.362C116.342 14.362 117.711 14.7953 118.734 15.662C119.757 16.5113 120.32 17.664 120.424 19.12H116.94C116.888 18.548 116.645 18.0973 116.212 17.768C115.796 17.4213 115.233 17.248 114.522 17.248C113.863 17.248 113.352 17.3693 112.988 17.612C112.641 17.8547 112.468 18.1927 112.468 18.626C112.468 19.1113 112.711 19.484 113.196 19.744C113.681 19.9867 114.435 20.238 115.458 20.498C116.498 20.758 117.356 21.0267 118.032 21.304C118.708 21.5813 119.289 22.0147 119.774 22.604C120.277 23.176 120.537 23.9387 120.554 24.892C120.554 25.724 120.32 26.4693 119.852 27.128C119.401 27.7867 118.743 28.3067 117.876 28.688C117.027 29.052 116.03 29.234 114.886 29.234ZM125.154 29.182C124.495 29.182 123.949 28.9827 123.516 28.584C123.1 28.168 122.892 27.6567 122.892 27.05C122.892 26.4433 123.1 25.9407 123.516 25.542C123.949 25.126 124.495 24.918 125.154 24.918C125.795 24.918 126.324 25.126 126.74 25.542C127.156 25.9407 127.364 26.4433 127.364 27.05C127.364 27.6567 127.156 28.168 126.74 28.584C126.324 28.9827 125.795 29.182 125.154 29.182ZM129.36 21.798C129.36 20.3073 129.663 19.0073 130.27 17.898C130.877 16.7713 131.717 15.9047 132.792 15.298C133.867 14.674 135.097 14.362 136.484 14.362C138.269 14.362 139.743 14.8127 140.904 15.714C142.083 16.598 142.871 17.846 143.27 19.458H139.344C139.136 18.834 138.781 18.3487 138.278 18.002C137.793 17.638 137.186 17.456 136.458 17.456C135.418 17.456 134.595 17.8373 133.988 18.6C133.381 19.3453 133.078 20.4113 133.078 21.798C133.078 23.1673 133.381 24.2333 133.988 24.996C134.595 25.7413 135.418 26.114 136.458 26.114C137.931 26.114 138.893 25.4553 139.344 24.138H143.27C142.871 25.698 142.083 26.9373 140.904 27.856C139.725 28.7747 138.252 29.234 136.484 29.234C135.097 29.234 133.867 28.9307 132.792 28.324C131.717 27.7 130.877 26.8333 130.27 25.724C129.663 24.5973 129.36 23.2887 129.36 21.798ZM152.333 29.234C150.946 29.234 149.698 28.9307 148.589 28.324C147.479 27.7 146.604 26.8247 145.963 25.698C145.339 24.5713 145.027 23.2713 145.027 21.798C145.027 20.3247 145.347 19.0247 145.989 17.898C146.647 16.7713 147.54 15.9047 148.667 15.298C149.793 14.674 151.05 14.362 152.437 14.362C153.823 14.362 155.08 14.674 156.207 15.298C157.333 15.9047 158.217 16.7713 158.859 17.898C159.517 19.0247 159.847 20.3247 159.847 21.798C159.847 23.2713 159.509 24.5713 158.833 25.698C158.174 26.8247 157.273 27.7 156.129 28.324C155.002 28.9307 153.737 29.234 152.333 29.234ZM152.333 26.062C152.991 26.062 153.607 25.906 154.179 25.594C154.768 25.2647 155.236 24.7793 155.583 24.138C155.929 23.4967 156.103 22.7167 156.103 21.798C156.103 20.4287 155.739 19.38 155.011 18.652C154.3 17.9067 153.425 17.534 152.385 17.534C151.345 17.534 150.469 17.9067 149.759 18.652C149.065 19.38 148.719 20.4287 148.719 21.798C148.719 23.1673 149.057 24.2247 149.733 24.97C150.426 25.698 151.293 26.062 152.333 26.062ZM180.405 14.388C182.173 14.388 183.594 14.934 184.669 16.026C185.761 17.1007 186.307 18.6087 186.307 20.55V29H182.667V21.044C182.667 19.9173 182.381 19.0593 181.809 18.47C181.237 17.8633 180.457 17.56 179.469 17.56C178.481 17.56 177.692 17.8633 177.103 18.47C176.531 19.0593 176.245 19.9173 176.245 21.044V29H172.605V21.044C172.605 19.9173 172.319 19.0593 171.747 18.47C171.175 17.8633 170.395 17.56 169.407 17.56C168.401 17.56 167.604 17.8633 167.015 18.47C166.443 19.0593 166.157 19.9173 166.157 21.044V29H162.517V14.596H166.157V16.338C166.625 15.7313 167.223 15.2547 167.951 14.908C168.696 14.5613 169.511 14.388 170.395 14.388C171.521 14.388 172.527 14.6307 173.411 15.116C174.295 15.584 174.979 16.26 175.465 17.144C175.933 16.312 176.609 15.6447 177.493 15.142C178.394 14.6393 179.365 14.388 180.405 14.388Z" fill="white"/>
<rect x="3" y="8" width="25" height="21" fill="white"/>
<path d="M30 7.21429V30.7857C30 32.5609 28.5609 34 26.7857 34H3.21429C1.43906 34 0 32.5609 0 30.7857V7.21429C0 5.43906 1.43906 4 3.21429 4H26.7857C28.5609 4 30 5.43906 30 7.21429ZM22.5 10.4286H20.3571C19.7654 10.4286 19.2857 10.9082 19.2857 11.5V16.8571H10.7143V11.5C10.7143 10.9082 10.2346 10.4286 9.64286 10.4286H7.5C6.90824 10.4286 6.42857 10.9082 6.42857 11.5V26.5C6.42857 27.0918 6.90824 27.5714 7.5 27.5714H9.64286C10.2346 27.5714 10.7143 27.0918 10.7143 26.5V21.1429H19.2857V26.5C19.2857 27.0918 19.7654 27.5714 20.3571 27.5714H22.5C23.0918 27.5714 23.5714 27.0918 23.5714 26.5V11.5C23.5714 10.9082 23.0918 10.4286 22.5 10.4286Z" fill="#2F80ED"/>
</svg>
